# xmcd
#
# Track frame offsets:
#	150
#	16723
#	33625
#	49084
#	67967
#	82418
#	97164
#	112630
#	129600
#	146158
#	162495
#	177026
#	194481
#	211441
#
# Disc length: 3080 seconds
#
# Revision: 1
# Processed by: cddbd v1.5.2PL0 Copyright (c) Steve Scherf et al.
# Submitted via: audiograbber 1.83.01
#
DISCID=c90c060e
DTITLE=Tuba Skinny - Some Kind-A-Shake
DYEAR=1900
DGENRE=Blues
TTITLE0=Some Kind-A-Shake
TTITLE1=Echo in the Dark
TTITLE2=Deep Minor Rythm Stomp
TTITLE3=Too Late
TTITLE4=Berlin Rag
TTITLE5=Squeeze Me
TTITLE6=Ballin' the Jack
TTITLE7=Saturday Night Function
TTITLE8=I'm Going Back Home
TTITLE9=Jubilee Stome
TTITLE10=Stealing Love
TTITLE11=You Gonna Quit Me
TTITLE12=Thriller Rag
TTITLE13=Wee Midnight Hours
EXTD=
EXTT0=
EXTT1=
EXTT2=
EXTT3=
EXTT4=
EXTT5=
EXTT6=
EXTT7=
EXTT8=
EXTT9=
EXTT10=
EXTT11=
EXTT12=
EXTT13=
PLAYORDER=
